<svg width="140" height="26" viewBox="0 0 140 26" fill="none" xmlns="http://www.w3.org/2000/svg">
<path d="M0.96 26V0.799998H17.7V4.832H5.28V13.04H14.352V13.76H5.28V26H0.96ZM19.0247 26V0.799998H23.3447V26H19.0247ZM28.0191 26V0.799998H32.3391V21.824H45.2991V26H28.0191ZM47.2791 26V0.799998H51.8151L60.7431 25.064L69.6711 0.799998H74.1711V26H69.8511V2.6L61.1751 26H60.2751L51.5991 2.6V26H47.2791ZM75.5318 26L85.4678 0.799998H91.0478L100.984 26H96.4118L93.4598 18.44H82.9838L79.9958 26H75.5318ZM83.2358 17.756H93.1718L88.2398 5.336L83.2358 17.756ZM106.586 26V4.976H97.118V0.799998H120.338V4.976H110.906V26H106.586ZM121.969 26V0.799998H138.205V4.58H126.217V13.04H134.641V13.76H126.217V22.22H139.465V26H121.969Z" fill="white"/>
</svg>
